<svg xmlns="http://www.w3.org/2000/svg" width="226.96" height="55.198" viewBox="0 0 226.96 55.198">
  <g id="logo_aid-humanity-horizontal-icon-middle" transform="translate(0.5 0)">
    <g id="logo_aid-humanity-humanity-text" transform="translate(102.035 20.738)">
      <path id="Union_2" data-name="Union 2" d="M-8769.309,26.828v-3.5a3.806,3.806,0,0,0,2.409-.642,4.471,4.471,0,0,0,1.415-2.162l-5.981-14.127h4.114l3.806,9.81,3.229-9.81h4.027l-5.319,14.617a9.644,9.644,0,0,1-3.021,4.544,6.727,6.727,0,0,1-4.171,1.286C-8768.967,26.841-8769.137,26.837-8769.309,26.828Zm-51.681-7.664a7.719,7.719,0,0,1-2.089-5.473,7.723,7.723,0,0,1,2.089-5.473,6.611,6.611,0,0,1,5-2.233,5.733,5.733,0,0,1,4.759,2.131V6.394h3.766v14.6h-3.766V19.266a5.727,5.727,0,0,1-4.759,2.131A6.611,6.611,0,0,1-8820.989,19.164Zm2.816-8.435a4.035,4.035,0,0,0-1.139,2.962,4.04,4.04,0,0,0,1.139,2.964,3.883,3.883,0,0,0,2.889,1.152,3.938,3.938,0,0,0,2.906-1.152,4.015,4.015,0,0,0,1.152-2.964,4.01,4.01,0,0,0-1.152-2.962,3.94,3.94,0,0,0-2.906-1.154A3.885,3.885,0,0,0-8818.173,10.728Zm-43.947,9.064a6.094,6.094,0,0,1-1.562-4.437V6.394h3.767v8.493a2.984,2.984,0,0,0,.789,2.233,2.861,2.861,0,0,0,2.1.773,3.092,3.092,0,0,0,2.333-.9,3.758,3.758,0,0,0,.878-2.714V6.394h3.765v14.6h-3.765V19.353a4.86,4.86,0,0,1-4.35,2.044A5.287,5.287,0,0,1-8862.12,19.792Zm84.129.468q-1.591-1.17-1.591-4.176V10.013h-2.541V6.394h2.541V3.443l3.764-1.137V6.394h3.3v3.619h-3.3v6.071a1.44,1.44,0,0,0,.381,1.11,1.735,1.735,0,0,0,1.11.394,16.136,16.136,0,0,0,1.81-.016v3.416a17.507,17.507,0,0,1-1.949.12A5.958,5.958,0,0,1-8777.991,20.26Zm-9.795.729V6.394h3.767v14.6Zm-6.684,0v-8.5a2.994,2.994,0,0,0-.788-2.233,2.876,2.876,0,0,0-2.1-.773,3.1,3.1,0,0,0-2.336.9,3.764,3.764,0,0,0-.876,2.714v7.883h-3.764V6.394h3.764V8.027a4.865,4.865,0,0,1,4.351-2.044,5.274,5.274,0,0,1,3.953,1.607,6.087,6.087,0,0,1,1.564,4.437v8.961Zm-34.534,0V12.259a2.986,2.986,0,0,0-.642-2.041,2.278,2.278,0,0,0-1.81-.731,2.467,2.467,0,0,0-2,.847,3.7,3.7,0,0,0-.715,2.451v8.2h-3.767V12.259a2.986,2.986,0,0,0-.642-2.041,2.281,2.281,0,0,0-1.81-.731,2.518,2.518,0,0,0-2,.847,3.6,3.6,0,0,0-.745,2.451v8.2h-3.766V6.394h3.766V7.94a4.543,4.543,0,0,1,4.057-1.957,4.322,4.322,0,0,1,3.969,2.1,4.956,4.956,0,0,1,4.353-2.1,5.194,5.194,0,0,1,4.014,1.636,6.219,6.219,0,0,1,1.5,4.377v8.992Zm-41.128,0v-8.5a3,3,0,0,0-.789-2.233,2.875,2.875,0,0,0-2.1-.773,3.1,3.1,0,0,0-2.336.9,3.764,3.764,0,0,0-.876,2.714v7.883H-8880V.555h3.766V8.027a4.864,4.864,0,0,1,4.351-2.044,5.283,5.283,0,0,1,3.956,1.607,6.1,6.1,0,0,1,1.56,4.437v8.961Zm82.6-17.033a2.218,2.218,0,0,1-.687-1.62A2.271,2.271,0,0,1-8787.536.7a2.195,2.195,0,0,1,1.62-.7,2.233,2.233,0,0,1,1.649.7,2.271,2.271,0,0,1,.687,1.636,2.218,2.218,0,0,1-.687,1.62,2.253,2.253,0,0,1-1.649.684A2.213,2.213,0,0,1-8787.536,3.956Z" transform="translate(8880)" fill="#102558" stroke="rgba(0,0,0,0)" stroke-width="1"/>
    </g>
    <g id="logo_aid-humanity-aid-text-medium" transform="translate(0 16.472)">
      <path id="Union_3" data-name="Union 3" d="M-9698.789-1105.776a9.1,9.1,0,0,1-2.549-6.519,9.073,9.073,0,0,1,2.549-6.533,8.229,8.229,0,0,1,6.152-2.656,7.1,7.1,0,0,1,6.113,2.935v-9.47h3.774v24.463h-3.774v-2.517a7.069,7.069,0,0,1-6.113,2.971A8.2,8.2,0,0,1-9698.789-1105.776Zm2.8-10.518a5.449,5.449,0,0,0-1.574,4,5.45,5.45,0,0,0,1.574,4,5.313,5.313,0,0,0,3.948,1.589,5.311,5.311,0,0,0,3.947-1.589,5.449,5.449,0,0,0,1.572-4,5.447,5.447,0,0,0-1.572-4,5.313,5.313,0,0,0-3.947-1.592A5.315,5.315,0,0,0-9695.991-1116.294Zm-29.458,10.518a9.089,9.089,0,0,1-2.551-6.519,9.067,9.067,0,0,1,2.551-6.533,8.218,8.218,0,0,1,6.15-2.656,7.1,7.1,0,0,1,6.115,2.935v-2.48h3.774v17.473h-3.774v-2.517a7.07,7.07,0,0,1-6.115,2.971A8.191,8.191,0,0,1-9725.449-1105.776Zm2.8-10.518a5.455,5.455,0,0,0-1.572,4,5.457,5.457,0,0,0,1.572,4,5.314,5.314,0,0,0,3.947,1.589,5.321,5.321,0,0,0,3.95-1.589,5.457,5.457,0,0,0,1.572-4,5.455,5.455,0,0,0-1.572-4,5.323,5.323,0,0,0-3.95-1.592A5.316,5.316,0,0,0-9722.653-1116.294Zm15.9,12.737v-17.473h3.772v17.473Zm.19-20.811a2.312,2.312,0,0,1-.718-1.694,2.342,2.342,0,0,1,.7-1.694,2.3,2.3,0,0,1,1.711-.718,2.3,2.3,0,0,1,1.714.718,2.351,2.351,0,0,1,.7,1.694,2.312,2.312,0,0,1-.718,1.694,2.31,2.31,0,0,1-1.694.718A2.317,2.317,0,0,1-9706.562-1124.368Z" transform="translate(9728 1128.474)" fill="#102558" stroke="rgba(0,0,0,0)" stroke-width="1"/>
    </g>
    <g id="logo_aid-humanity-icon" transform="translate(52.484)">
      <path id="Path_70532" data-name="Path 70532" d="M73.443,15.452A7.723,7.723,0,0,1,66.627,4.118a7.725,7.725,0,1,1,13.658,7.221h0A7.734,7.734,0,0,1,73.443,15.452Zm.018-11.174A3.449,3.449,0,1,0,76.5,9.341h0a3.453,3.453,0,0,0-3.044-5.063Zm4.934,6.062h0Z" transform="translate(-52.484)" fill="#ffc100"/>
      <path id="Union_1" data-name="Union 1" d="M-8860.558,37.039l-15.8-15.8a12.362,12.362,0,0,1-3.644-8.8,12.371,12.371,0,0,1,3.644-8.8,12.46,12.46,0,0,1,17.329-.263,12.457,12.457,0,0,1,17.327.263,12.362,12.362,0,0,1,3.646,8.8,12.353,12.353,0,0,1-3.646,8.8,2.13,2.13,0,0,1-3.021,0,2.134,2.134,0,0,1,0-3.022,8.126,8.126,0,0,0,2.392-5.776,8.126,8.126,0,0,0-2.392-5.776,8.183,8.183,0,0,0-11.556,0l-1.238,1.239,0,0-7.642,7.642a2.128,2.128,0,0,1-1.513.626,2.125,2.125,0,0,1-1.512-.626,2.142,2.142,0,0,1,0-3.024l6.12-6.117a8.17,8.17,0,0,0-11.266.259,8.112,8.112,0,0,0-2.394,5.776,8.112,8.112,0,0,0,2.394,5.776l15.8,15.8a2.137,2.137,0,0,1,0,3.024,2.132,2.132,0,0,1-1.511.626A2.138,2.138,0,0,1-8860.558,37.039Zm5.578-5.079-7.4-7.4a2.137,2.137,0,0,1,0-3.024,2.138,2.138,0,0,1,3.024,0l7.4,7.4a2.134,2.134,0,0,1,0,3.022,2.132,2.132,0,0,1-1.513.626A2.117,2.117,0,0,1-8854.979,31.96Zm5.281-5.563-7.12-7.12a2.134,2.134,0,0,1,0-3.022,2.138,2.138,0,0,1,3.024,0l7.118,7.12a2.136,2.136,0,0,1,0,3.022,2.121,2.121,0,0,1-1.512.626A2.121,2.121,0,0,1-8849.7,26.4Z" transform="translate(8880 17.032)" fill="#00ade9" stroke="rgba(0,0,0,0)" stroke-width="1"/>
    </g>
  </g>
</svg>
